<svg width="50" height="59" viewBox="0 0 50 59" fill="none" xmlns="http://www.w3.org/2000/svg">
<path d="M45.9255 18.3137C45.5467 18.7256 45.2692 19.0898 45.0569 19.4166C45.0785 22.785 45.1301 29.3453 45.1527 30.28C45.2915 35.9645 43.2116 40.8305 38.7925 45.1562C38.1803 45.7558 37.5453 46.3097 36.891 46.865C37.497 46.3506 35.4829 48.1819 32.1828 50.2871C29.934 51.6623 27.4786 52.8583 24.7845 53.8869C19.3017 51.7875 14.7546 48.9262 10.9042 45.1562C10.2067 44.4733 9.57143 43.7766 8.99035 43.066L8.96543 43.0349C8.17901 42.0703 7.49513 41.0792 6.92022 40.058C6.92382 40.056 6.92768 40.0537 6.93127 40.0517L6.06776 38.7854C3.55302 38.2456 1.39345 36.7507 0 34.7028C0.178101 35.8299 0.430731 36.9302 0.767657 38.0025C1.40296 39.9285 1.61627 40.3136 2.72214 42.4704C3.94134 44.6071 5.52857 46.6339 7.5013 48.565C12.0484 53.0177 17.4292 56.3321 23.9513 58.6981L24.7843 59L25.6167 58.6981C32.2771 56.2819 37.7 52.9673 42.1957 48.5653C47.6145 43.2605 50.1645 37.2415 49.9918 30.1649C49.9759 29.5006 49.9615 20.1552 49.9522 12C49.7037 12.6264 49.44 13.2528 49.138 13.8608C48.3992 15.3498 47.2599 16.8635 45.9255 18.3137Z" fill="url(#paint0_linear)"/>
<path d="M49.9921 0L49.9923 0.310325C49.9923 0.322243 49.9923 0.334489 49.9923 0.347061L49.9926 0.607965C49.9926 0.624352 49.9926 0.641048 49.9926 0.658051L49.9928 0.935834C49.9928 0.955846 49.9929 0.976153 49.9929 0.996751L49.9931 1.25777C49.9931 1.28066 49.9931 1.30383 49.9931 1.32728L49.9933 1.54578C49.9933 1.57088 49.9934 1.59625 49.9934 1.62189L49.9936 1.8598C49.9936 1.88702 49.9936 1.91451 49.9937 1.94225L49.9938 2.11177C49.9938 2.14053 49.9939 2.16955 49.9939 2.19881L49.994 2.37738C49.9941 2.40763 49.9941 2.43813 49.9941 2.46887L49.9944 2.752C49.9944 2.78417 49.9944 2.81657 49.9945 2.84921L49.9946 3.04778C49.9947 3.14843 49.9948 3.25112 49.9949 3.35578L49.9951 3.5677C49.9951 3.60345 49.9952 3.63941 49.9952 3.67558L49.9954 3.89513C49.9956 4.08016 49.9957 4.27033 49.9959 4.46531L49.9961 4.70157C49.9972 5.85446 49.9985 7.16478 50 8.56878L49.9745 8.64776C49.6938 9.51554 49.4255 10.3453 49.3766 10.4754L49.2715 10.7543C48.9199 11.6864 48.5516 12.6386 48.1137 13.5231L48.0262 13.6963C47.3125 15.0817 46.2778 16.4585 45.1238 17.6665L45.1236 17.6671L45.1233 17.6676L44.9915 17.8129C44.9032 17.9096 44.8142 18.0057 44.7239 18.1004L44.5751 18.2552C43.233 19.6449 41.797 20.9235 40.0873 21.8681L39.8019 22.0266C39.1364 22.3977 38.4733 22.7754 37.7857 23.1008L37.7332 23.1256C37.0663 23.4398 37.0142 23.4436 37.0107 24.1465L37.0105 24.2603L37.0104 24.361L37.0102 24.8051C37.0102 24.8448 37.0102 24.8852 37.0102 24.9261L37.01 25.7317C37.01 25.7801 37.01 25.8291 37.0099 25.8786L37.0097 27.0008C37.0097 27.058 37.0097 27.1156 37.0097 27.1738L37.0095 28.8579C37.0094 28.9242 37.0094 28.9909 37.0094 29.0581L37.0092 31.8566C37.0092 31.9325 37.0092 32.0086 37.0092 32.0849L37.0089 45.399L36.9277 45.4687C35.8774 46.3681 34.0376 47.857 32.324 49L32.324 47.5781C32.324 47.5254 32.324 47.4714 32.324 47.4161L32.3238 44.2091C32.3238 44.1243 32.3238 44.0388 32.3237 43.9525L32.3235 41.4767C32.3235 41.3805 32.3235 41.2838 32.3235 41.1868L32.3232 39.4073C32.3232 39.307 32.3232 39.2066 32.3232 39.1059L32.323 37.5903C32.323 37.4891 32.323 37.388 32.3229 37.2869L32.3228 36.0785C32.3227 35.9784 32.3227 35.8784 32.3227 35.7787L32.3225 34.5952C32.3225 34.4979 32.3224 34.4008 32.3224 34.3042L32.3223 33.446C32.3222 33.352 32.3222 33.2585 32.3222 33.1655L32.322 32.3437C32.322 32.2541 32.322 32.1652 32.3219 32.0769L32.3217 31.3011C32.3217 31.217 32.3217 31.1337 32.3217 31.0512L32.3215 30.3309C32.3214 30.2534 32.3214 30.1768 32.3214 30.1011L32.3212 29.6584C32.3212 29.5865 32.3212 29.5157 32.3212 29.4458L32.3209 28.8456C32.3209 28.7821 32.3209 28.7198 32.3209 28.6586L32.3207 28.3057C32.3207 28.2493 32.3206 28.1941 32.3206 28.1401L32.3204 27.8317C32.3204 27.7829 32.3204 27.7354 32.3204 27.6892L32.3202 27.4288C32.3202 27.3882 32.3201 27.349 32.3201 27.3113L32.3199 27.1025L32.3193 27.0257C32.3145 26.7181 32.2836 26.4009 32.2591 25.9578L32.1661 25.9983C31.8328 26.1417 31.5791 26.233 31.3483 26.3639L29.63 27.3445C28.4855 28.0001 27.3423 28.6579 26.1949 29.3084L24.4338 30.3026C22.6712 31.2947 20.9058 32.2822 19.1486 33.2837L19.1319 33.2932C18.6787 33.5514 16.2568 34.9445 13.2562 36.6711L13.2516 36.6531L13.0926 36.7533C12.6121 37.0489 12.0996 37.2975 11.5622 37.4964L11.5456 37.5048L11.54 37.5037L11.3816 37.5601C10.5335 37.8524 9.62548 38.0169 8.67921 38.0282L8.59425 38.0286L8.50891 38.0289L8.32519 38.0256C7.8365 38.0118 7.35798 37.958 6.8934 37.866L6.89321 37.866L6.89264 37.8658L6.77943 37.8413L6.6666 37.8153L6.47588 37.7684C6.15938 37.6872 5.84981 37.5902 5.54894 37.4807L5.43477 37.4385L5.32136 37.3944L5.32392 37.398H5.32366L5.21956 37.3568C2.07342 36.0884 0 33.0957 0 29.5218L0.00148685 29.3696C0.00343774 29.2684 0.00724482 29.1677 0.0125293 29.0674L0.0135521 28.923H0.0235244L0.0329216 28.8014C0.29271 25.7257 2.19973 23.115 4.87772 21.843L5.01451 21.7795C6.06825 21.3017 7.23687 21.031 8.46749 21.0157L8.52157 21.0141L8.57565 21.0129L8.70722 21.0138C11.5089 21.0557 13.9831 22.4313 15.5176 24.5279L15.5818 24.5999C15.7282 24.7708 15.8509 24.9614 15.9447 25.1688L16.0155 25.2889L16.0845 25.4103L16.0459 25.4288L16.0712 25.5144C16.1266 25.7157 16.1564 25.9274 16.1564 26.1463L16.1554 26.2144C16.1191 27.5047 15.0533 28.5394 13.7444 28.5394L13.6632 28.5381C12.8546 28.5116 12.1477 28.09 11.7302 27.462L11.7064 27.4731L11.6523 27.394C11.1008 26.6102 10.253 26.0483 9.26988 25.8657L9.15682 25.8463C8.96748 25.8166 8.77361 25.7995 8.57565 25.7995L8.48977 25.8004C6.66263 25.8412 5.16222 27.1799 4.87747 28.923L4.85957 29.0444C4.849 29.1257 4.84116 29.2078 4.83605 29.2907L4.83374 29.707L4.83864 29.7877C4.9768 31.7186 6.59465 33.2438 8.57565 33.2438L8.70129 33.2417C9.07652 33.2289 9.43646 33.1594 9.7759 33.046L9.77565 33.0485L9.78946 33.0409L9.80611 33.0343C10.4843 32.7459 23.8165 25.3139 24.6124 24.8636L24.5959 24.8562C24.1598 24.6688 20.4801 23.5302 18.978 22.7642L18.7631 22.6532C16.6929 21.5716 14.825 20.2237 13.1944 18.5266L13.0236 18.3471C11.666 16.9057 10.5165 15.337 9.59308 13.5949L9.56476 13.5433C9.35404 13.1741 9.07447 13.0004 8.60071 13.0053L8.55937 13.0057C8.25806 13.0083 7.70945 13.0102 7.12358 13.0115L6.95535 13.0119C6.92721 13.012 6.89902 13.012 6.87082 13.0121L6.70159 13.0124C6.41982 13.0129 6.14094 13.0133 5.88762 13.0137L5.73887 13.0138C5.71465 13.0139 5.69073 13.0139 5.66714 13.0139L5.46414 13.0141C5.44269 13.0142 5.42164 13.0142 5.401 13.0142L5.17463 13.0144C5.15767 13.0144 5.14121 13.0144 5.12527 13.0144L4.82129 13.0147L4.81891 13.0147V16.5832L4.81794 16.6514C4.78158 17.9199 3.73401 18.9371 2.44704 18.9373H2.37596L2.30724 18.9364C1.0288 18.9005 0.00332409 17.8606 0.00332409 16.5832V0H49.9921ZM45.176 4.77848H4.81891V8.35999H4.88898V8.36861L8.23532 8.36849L11.5817 8.36912L11.6918 8.36929C12.3906 8.3719 12.3921 8.41445 12.6801 9.14849L12.749 9.32207C14.0468 12.5532 16.0023 15.2832 18.9164 17.3136L19.1092 17.4459C20.399 18.3171 21.7726 18.974 23.2408 19.5094L23.4343 19.5785C25.5004 20.2988 27.6166 20.5102 29.7777 20.4035L29.9922 20.3914C31.4202 20.3012 32.814 20.0198 34.1806 19.5363L34.4206 19.45C35.5365 19.0421 36.5991 18.5579 37.6208 17.9514L37.8109 17.8365C39.0703 17.0611 40.1741 16.1064 41.1845 15.0428L41.3238 14.8944C42.3391 13.8018 43.2106 12.598 43.8607 11.2522L43.9918 10.981C44.3845 10.1696 44.7708 9.37302 45.1634 8.48481L45.1632 8.42519L45.176 4.77848ZM28.7013 8.52946H28.8465L29.282 8.52968C33.9231 8.53325 38.3881 8.57972 38.772 8.67179L38.7254 8.83108C38.3109 10.2055 37.6075 11.4206 36.6686 12.4882L36.5673 12.6021C34.6332 14.7484 32.16 15.9533 29.2814 16.1565L29.125 16.1663C23.9671 16.4501 19.3223 12.7587 18.518 8.67128C18.8065 8.58867 22.6632 8.54143 26.9374 8.53146L27.2294 8.53083C27.2782 8.53074 27.327 8.53065 27.3759 8.53057L27.6694 8.53012C27.8164 8.52992 27.9637 8.52977 28.1111 8.52966L28.5537 8.52946H28.7013Z" fill="white"/>
<defs>
<linearGradient id="paint0_linear" x1="50" y1="23.1272" x2="5.20071" y2="48.2147" gradientUnits="userSpaceOnUse">
<stop stop-color="#F7941E"/>
<stop offset="1" stop-color="#EF4123"/>
</linearGradient>
</defs>
</svg>
