<svg width="24" height="24" viewBox="0 0 24 24" fill="none" xmlns="http://www.w3.org/2000/svg">
<path d="M12 22C17.5228 22 22 17.5228 22 12C22 6.47715 17.5228 2 12 2C6.47715 2 2 6.47715 2 12C2 17.5228 6.47715 22 12 22Z" stroke="#E84138" stroke-width="2" stroke-linecap="round" stroke-linejoin="round"/>
<path d="M16.1264 15.647C15.8926 15.647 15.6195 15.76 15.3076 15.9849L13.5783 15.348L15.3333 14.7107C15.6281 14.9016 15.901 14.9971 16.1526 14.9971C16.4296 14.9971 16.6117 14.8539 16.6986 14.5682C16.7159 14.5076 16.7245 14.442 16.7245 14.3727C16.7245 14.0094 16.4904 13.8139 16.0224 13.7883C16.2128 13.5976 16.3087 13.4107 16.3087 13.2288C16.3087 13.0387 16.2085 12.8777 16.0095 12.7476C15.9054 12.6961 15.797 12.6698 15.6846 12.6698C15.303 12.6698 15.043 12.9772 14.9043 13.593L11.8622 14.7245L8.82013 13.6193C8.68149 12.9864 8.42109 12.6698 8.03997 12.6698C7.92735 12.6698 7.81891 12.6961 7.71484 12.7476C7.52448 12.8776 7.429 13.0387 7.429 13.2288C7.429 13.4107 7.52448 13.5976 7.71484 13.7883C7.2384 13.8139 7 14.0094 7 14.3728C7 14.442 7.00879 14.5076 7.02583 14.5682C7.12141 14.8539 7.30337 14.9971 7.57207 14.9971C7.82319 14.9971 8.09616 14.9016 8.39113 14.7107L10.1591 15.348L8.41677 15.9717C8.11349 15.7553 7.84524 15.647 7.61121 15.647C7.33353 15.647 7.1386 15.7903 7.02583 16.0759C7.00874 16.1366 7 16.2013 7 16.2711C7 16.6348 7.23835 16.8303 7.71484 16.8559C7.52448 17.0466 7.429 17.2335 7.429 17.4155C7.429 17.6055 7.52448 17.7658 7.71484 17.8966C7.83649 17.966 7.95324 18 8.06615 18C8.42109 18 8.67726 17.6967 8.83325 17.0902L11.8622 15.9849L14.8914 17.0902C15.0475 17.6967 15.3076 18 15.6714 18C15.7756 18 15.8879 17.966 16.0095 17.8966C16.2085 17.7658 16.3087 17.6055 16.3087 17.4155C16.3087 17.2335 16.2128 17.0466 16.0225 16.8559C16.4904 16.8303 16.7245 16.6348 16.7245 16.2711C16.7245 16.2013 16.7159 16.1366 16.6987 16.0759C16.5945 15.7903 16.4039 15.647 16.1264 15.647Z" fill="#E84138"/>
<path d="M7.74111 11.3309C8.21766 11.8767 8.88933 12.2759 9.75647 12.5266V12.7224C9.75647 12.9648 9.83859 13.1686 10.0033 13.333C10.1678 13.4979 10.3715 13.5889 10.6143 13.6062C10.8655 13.6237 11.0516 13.5803 11.1731 13.4762C11.3636 13.6146 11.576 13.6839 11.8103 13.6839C12.0269 13.6839 12.2265 13.6193 12.4082 13.4893C12.5296 13.5843 12.7072 13.6238 12.9414 13.6062C13.1839 13.5803 13.3878 13.4871 13.5524 13.3268C13.7169 13.1657 13.7992 12.9648 13.7992 12.7224V12.5795C14.7351 12.3366 15.4589 11.9294 15.9705 11.3567C16.4645 10.8111 16.7114 10.1655 16.7114 9.41989C16.7114 9.25492 16.694 9.08169 16.6592 8.89944C16.4861 7.7909 15.9747 6.87593 15.1255 6.15676C14.2327 5.38583 13.1449 5 11.8622 5C10.5793 5 9.49155 5.38146 8.59917 6.14345C7.74966 6.87209 7.24276 7.79085 7.07814 8.89939C7.04331 9.08165 7.02588 9.25487 7.02588 9.41984C7.02588 10.1479 7.26413 10.7844 7.74111 11.3309ZM12.8699 7.98357C13.1256 7.68472 13.4354 7.53517 13.7993 7.53517C14.1721 7.53517 14.4862 7.68472 14.7419 7.98357C14.9973 8.28198 15.1255 8.64395 15.1255 9.06834C15.1255 9.49311 14.9974 9.85518 14.7419 10.1541C14.4862 10.4536 14.1721 10.6025 13.7993 10.6025C13.4354 10.6025 13.1256 10.4536 12.8699 10.1541C12.614 9.85518 12.4862 9.49311 12.4862 9.06834C12.4861 8.64395 12.614 8.28198 12.8699 7.98357ZM11.4918 10.9637C11.6174 10.8013 11.7406 10.7197 11.8622 10.7197C11.9836 10.7197 12.0981 10.8096 12.2066 10.9903C12.3149 11.1701 12.3695 11.3412 12.3695 11.5044C12.3695 11.7531 12.2045 11.8768 11.8751 11.8768C11.6583 11.8768 11.4981 11.821 11.3942 11.71C11.3334 11.6407 11.3034 11.5554 11.3034 11.4522C11.3034 11.2897 11.3661 11.127 11.4918 10.9637ZM8.87214 7.98357C9.13219 7.68472 9.44431 7.53517 9.80819 7.53517C10.1719 7.53517 10.4841 7.68472 10.7443 7.98357C11.0044 8.28198 11.1346 8.64395 11.1346 9.06834C11.1346 9.49311 11.0044 9.85518 10.7443 10.1541C10.4841 10.4536 10.1719 10.6025 9.80819 10.6025C9.44431 10.6025 9.13219 10.4536 8.87214 10.1541C8.61223 9.85518 8.48198 9.49311 8.48198 9.06834C8.48198 8.64395 8.61223 8.28198 8.87214 7.98357Z" fill="#E84138"/>
</svg>
