<svg width="22" height="22" viewBox="0 0 22 22" fill="none" xmlns="http://www.w3.org/2000/svg">
<mask id="mask0" mask-type="alpha" maskUnits="userSpaceOnUse" x="0" y="0" width="22" height="22">
<path d="M11 0C17.065 0 22 4.935 22 11C22 17.065 17.065 22 11 22C4.935 22 0 17.065 0 11C0 4.935 4.935 0 11 0ZM11 2C6.038 2 2 6.038 2 11C2 15.963 6.038 20 11 20C15.963 20 20 15.963 20 11C20 6.038 15.963 2 11 2ZM11.71 14.292C11.8 14.382 11.87 14.492 11.92 14.622C11.98 14.742 12 14.872 12 15.002C12 15.272 11.9 15.522 11.71 15.702C11.52 15.892 11.27 16.002 11 16.002C10.73 16.002 10.48 15.892 10.29 15.702C10.1 15.522 10 15.272 10 15.002C10 14.872 10.03 14.742 10.08 14.622C10.13 14.492 10.2 14.382 10.29 14.292C10.39 14.202 10.49 14.122 10.62 14.071C10.98 13.922 11.43 14.012 11.71 14.292ZM11 6C11.552 6 12 6.448 12 7V11C12 11.552 11.552 12 11 12C10.448 12 10 11.552 10 11V7C10 6.448 10.448 6 11 6Z" fill="white"/>
</mask>
<g mask="url(#mask0)">
<path d="M11 0C17.065 0 22 4.935 22 11C22 17.065 17.065 22 11 22C4.935 22 0 17.065 0 11C0 4.935 4.935 0 11 0ZM11 2C6.038 2 2 6.038 2 11C2 15.963 6.038 20 11 20C15.963 20 20 15.963 20 11C20 6.038 15.963 2 11 2ZM11.71 14.292C11.8 14.382 11.87 14.492 11.92 14.622C11.98 14.742 12 14.872 12 15.002C12 15.272 11.9 15.522 11.71 15.702C11.52 15.892 11.27 16.002 11 16.002C10.73 16.002 10.48 15.892 10.29 15.702C10.1 15.522 10 15.272 10 15.002C10 14.872 10.03 14.742 10.08 14.622C10.13 14.492 10.2 14.382 10.29 14.292C10.39 14.202 10.49 14.122 10.62 14.071C10.98 13.922 11.43 14.012 11.71 14.292ZM11 6C11.552 6 12 6.448 12 7V11C12 11.552 11.552 12 11 12C10.448 12 10 11.552 10 11V7C10 6.448 10.448 6 11 6Z" fill="#E67E22"/>
</g>
</svg>
